<svg xmlns="http://www.w3.org/2000/svg" width="64" height="128" viewBox="0 0 16 32" shape-rendering="crispEdges"><rect x="4" y="1" width="8" height="3" fill="#e42d25"/><rect x="2" y="4" width="13" height="2" fill="#e42d25"/><rect x="4" y="6" width="8" height="7" fill="#ffc18a"/><rect x="3" y="6" width="3" height="5" fill="#743c22"/><rect x="10" y="6" width="2" height="3" fill="#25202a"/><rect x="10" y="9" width="5" height="2" fill="#ffc18a"/><rect x="7" y="11" width="7" height="2" fill="#743c22"/><rect x="3" y="14" width="10" height="9" fill="#e42d25"/><rect x="5" y="14" width="2" height="9" fill="#2269ba"/><rect x="10" y="14" width="2" height="9" fill="#2269ba"/><rect x="1" y="17" width="3" height="6" fill="#ffc18a"/><rect x="13" y="17" width="3" height="6" fill="#ffc18a"/><rect x="4" y="21" width="9" height="5" fill="#2269ba"/><rect x="4" y="26" width="4" height="4" fill="#2269ba"/><rect x="10" y="26" width="3" height="4" fill="#2269ba"/><rect x="2" y="29" width="6" height="3" fill="#743c22"/><rect x="10" y="29" width="6" height="3" fill="#743c22"/><rect x="6" y="20" width="1" height="2" fill="#ffd54b"/><rect x="10" y="20" width="1" height="2" fill="#ffd54b"/></svg>