<?xml version="1.0" encoding="utf-8"?>
<!-- Generator: Adobe Illustrator 22.1.0, SVG Export Plug-In . SVG Version: 6.00 Build 0)  -->
<svg version="1.1" id="Ebene_1" xmlns="http://www.w3.org/2000/svg" xmlns:xlink="http://www.w3.org/1999/xlink" x="0px" y="0px"
	 width="230px" height="470px" viewBox="0 0 230 470" style="enable-background:new 0 0 230 470;" xml:space="preserve">
<style type="text/css">
	.st0{opacity:0.4;}
	.st1{opacity:0.8;}
	.st2{fill:#C10022;}
	.st3{fill:#679B5A;}
	.st4{fill:#F1002B;}
	.st5{fill:#227322;}
</style>
<title>ring_cherries_laf</title>
<g class="st0">
	<path d="M116.1,276.7c49.1,0,88.9,39.8,88.9,88.9c0,49.1-39.8,88.9-88.9,88.9c-49.1,0-88.9-39.8-88.9-88.9c0,0,0,0,0,0
		C27.3,316.5,67,276.8,116.1,276.7 M116.1,260.6c-58,0-105,47-105,105s47,105,105,105s105-47,105-105S174.1,260.6,116.1,260.6z"/>
</g>
<g class="st1">
	<path class="st2" d="M85.2,281.1c33.5,12.9,69.2,9.8,74.5,11.5c26.6,9.1-19.9,11.3-19.9,11.3s-28.5,1.2-32.8-2.2
		S85.2,281.1,85.2,281.1L85.2,281.1z"/>
	<path class="st3" d="M108.4,306c0,0,95.1-217,96.8-259.8s22.5-9.6,22.5-9.6S155.3,269,135.2,306.9L108.4,306z"/>
	<path class="st4" d="M15.9,399.8c-5-18.1-4.9-60.7,6.6-82.7S48,287,53.6,284.7s30.8-7.3,43,0s28.2,14.1,39.3,13.7
		s20.3-7.3,36.1-6.6s35.7,7.3,46.3,26.9s12.2,38.6,10.9,51.8c-1.3,12.1-7.3,32.5-14.4,46.6s-26.5,37.9-46.3,46.4
		c-21.6,9.1-55.5,8.3-79.8,4c-10.7-1.9-32.3-10-43.9-22.1S20.5,416.5,15.9,399.8z"/>
	<path class="st5" d="M230,34.5c-0.2,0.4-0.5,0.9-0.8,1.3c-4.5,7-9.3,13.4-13,13.7s-11-6.1-12.4-8.8s-4.7-4.7,0.9-12.2
		s9.3-6.4,13.9-8.7c3.1-1.6,8.3,0.8,11.4,2.5"/>
</g>
</svg>
