<?xml version="1.0" encoding="utf-8"?>
<!-- Generator: Adobe Illustrator 22.1.0, SVG Export Plug-In . SVG Version: 6.00 Build 0)  -->
<svg version="1.1" id="Ebene_1" xmlns="http://www.w3.org/2000/svg" xmlns:xlink="http://www.w3.org/1999/xlink" x="0px" y="0px"
	 width="1355px" height="354px" viewBox="0 0 1355 354" style="enable-background:new 0 0 1355 354;" xml:space="preserve">
<style type="text/css">
	.st0{fill:#1A1A1A;}
</style>
<title>wizard_en_6Element 45</title>
<path class="st0" d="M19.5,27.4h-3V15.3H3v12.1H0V1.7h3v10.9h13.5V1.7h3L19.5,27.4z"/>
<path class="st0" d="M42.8,17.7c0.2,2.7-0.7,5.3-2.4,7.4c-1.7,1.8-4.1,2.8-6.6,2.6c-1.6,0-3.2-0.4-4.6-1.2c-1.4-0.8-2.4-2-3.1-3.5
	c-0.8-1.7-1.1-3.5-1.1-5.3c0-3.1,0.8-5.6,2.4-7.3c1.7-1.8,4.1-2.8,6.5-2.6c2.4-0.1,4.8,0.9,6.4,2.7C42,12.5,42.9,15.1,42.8,17.7z
	 M28.1,17.7c-0.1,2,0.4,4,1.5,5.6c2.2,2.4,5.9,2.6,8.3,0.4c0.1-0.1,0.3-0.3,0.4-0.4c1.1-1.7,1.6-3.6,1.5-5.6c0.1-2-0.4-3.9-1.5-5.6
	c-2.3-2.4-6.1-2.5-8.5-0.2c-0.1,0.1-0.2,0.1-0.2,0.2C28.5,13.8,27.9,15.7,28.1,17.7z"/>
<path class="st0" d="M63.6,27.4L60.1,16c-0.2-0.7-0.6-2.3-1.2-4.7h-0.1c-0.5,2-0.9,3.6-1.2,4.7l-3.6,11.3h-3.3L45.2,8.1h3.1
	c1.2,4.8,2.2,8.5,2.8,11.1c0.5,1.7,0.8,3.4,1.1,5.1h0.1c0.1-0.7,0.3-1.5,0.6-2.6s0.5-1.9,0.7-2.5l3.5-11.1h3.2l3.4,11.1
	c0.6,1.7,1,3.4,1.3,5.1h0.1c0.1-0.4,0.2-1.1,0.4-2s1.4-5.6,3.7-14.2h3L67,27.3L63.6,27.4z"/>
<path class="st0" d="M97.6,22.1c0.1,1.6-0.7,3.2-2,4.1C94,27.3,92,27.8,90,27.7c-2.1,0.1-4.1-0.3-6-1.2v-2.7c1,0.5,2,0.9,3,1.1
	c1,0.3,2,0.4,3.1,0.4c1.2,0.1,2.4-0.2,3.5-0.7c1.2-0.7,1.6-2.2,0.9-3.4c-0.2-0.3-0.4-0.5-0.6-0.7c-1.2-0.8-2.4-1.4-3.8-1.9
	c-1.3-0.5-2.6-1-3.8-1.8c-0.7-0.4-1.3-1-1.7-1.7c-0.4-0.7-0.6-1.5-0.6-2.3c0-1.5,0.7-2.9,1.9-3.7c1.6-1,3.4-1.5,5.2-1.4
	c2.1,0,4.2,0.4,6.1,1.3l-1,2.4c-1.7-0.7-3.4-1.1-5.3-1.2c-1.1-0.1-2.2,0.2-3.1,0.6c-0.6,0.4-1,1.1-1,1.8c0,0.5,0.1,0.9,0.4,1.3
	c0.4,0.4,0.8,0.8,1.3,1c1.1,0.6,2.2,1,3.4,1.4c1.7,0.5,3.2,1.4,4.6,2.5C97.3,19.8,97.7,20.9,97.6,22.1z"/>
<path class="st0" d="M115.6,27.4V14.9c0.1-1.3-0.3-2.5-1.1-3.5c-0.9-0.8-2.1-1.3-3.4-1.2c-1.7-0.1-3.3,0.5-4.4,1.6
	c-0.9,1.1-1.4,2.9-1.4,5.4v10.1h-2.9V0h2.9v8.3c0,0.8,0,1.7-0.1,2.5h0.2c0.6-0.9,1.4-1.7,2.4-2.2c1.1-0.6,2.4-0.8,3.6-0.8
	c1.9-0.1,3.8,0.5,5.3,1.7c1.2,1.1,1.8,2.9,1.8,5.3v12.6H115.6z"/>
<path class="st0" d="M141.1,17.7c0.2,2.7-0.7,5.3-2.4,7.4c-1.7,1.8-4.1,2.8-6.6,2.6c-1.6,0-3.2-0.4-4.6-1.2c-1.4-0.8-2.5-2-3.1-3.5
	c-0.7-1.7-1.1-3.5-1-5.3c0-3.1,0.8-5.6,2.4-7.3c1.7-1.8,4.1-2.8,6.5-2.6c2.4-0.1,4.8,0.9,6.4,2.7C140.4,12.5,141.3,15.1,141.1,17.7z
	 M126.5,17.7c-0.1,2,0.4,4,1.5,5.6c2.2,2.4,5.9,2.6,8.3,0.4c0.1-0.1,0.3-0.3,0.4-0.4c1.1-1.7,1.6-3.6,1.5-5.6c0.1-2-0.4-3.9-1.5-5.6
	c-1.1-1.3-2.7-2-4.4-1.9c-1.7-0.1-3.3,0.6-4.3,1.9C126.8,13.7,126.3,15.7,126.5,17.7z"/>
<path class="st0" d="M149,8.1v12.5c-0.1,1.3,0.3,2.5,1.1,3.5c0.9,0.8,2.1,1.3,3.4,1.2c1.6,0.1,3.3-0.5,4.4-1.6
	c0.9-1.1,1.4-2.9,1.4-5.4V8.1h2.9v19.3h-2.4l-0.4-2.6h-0.1c-0.6,0.9-1.5,1.7-2.5,2.2c-1.1,0.5-2.4,0.8-3.6,0.8
	c-1.9,0.1-3.8-0.5-5.3-1.7c-1.2-1.1-1.8-2.9-1.8-5.3V8.1H149z"/>
<path class="st0" d="M171.2,27.4h-2.9V0h2.9V27.4z"/>
<path class="st0" d="M190.6,24.8h-0.2c-1.4,1.9-3.6,3.1-6,2.9c-2.3,0.1-4.5-0.8-5.9-2.6c-1.4-1.7-2.1-4.2-2.1-7.4s0.7-5.6,2.1-7.4
	c1.4-1.8,3.6-2.7,5.9-2.6c2.4-0.1,4.6,1,6,2.8h0.2l-0.1-1.4l-0.1-1.4V0h2.9v27.4h-2.4L190.6,24.8z M184.7,25.3
	c1.6,0.2,3.2-0.4,4.3-1.6c0.9-1.1,1.3-2.8,1.3-5.2v-0.6c0-2.7-0.5-4.7-1.4-5.9c-1.1-1.2-2.7-1.9-4.4-1.7c-1.6-0.1-3.1,0.7-3.9,2
	c-1,1.7-1.5,3.7-1.4,5.6c-0.1,2,0.3,3.9,1.4,5.6C181.7,24.6,183.2,25.4,184.7,25.3z"/>
<path class="st0" d="M215.1,25.3c0.5,0,1,0,1.5-0.1c0.4-0.1,0.8-0.1,1.1-0.2v2.2c-0.4,0.2-0.9,0.3-1.4,0.4c-0.5,0.1-1.1,0.1-1.7,0.1
	c-3.7,0-5.6-2-5.6-5.9V10.4h-2.8V9l2.8-1.2l1.2-4.1h1.7v4.5h5.6v2.3H212v11.3c-0.1,1,0.2,1.9,0.8,2.7
	C213.4,25,214.2,25.3,215.1,25.3z"/>
<path class="st0" d="M234.7,27.4V14.9c0.1-1.3-0.3-2.5-1.1-3.5c-0.9-0.8-2.1-1.3-3.4-1.2c-1.7-0.1-3.3,0.5-4.4,1.6
	c-0.9,1.1-1.4,2.9-1.4,5.4v10.1h-2.9V0h2.9v8.3c0,0.8,0,1.7-0.1,2.5h0.1c0.6-0.9,1.4-1.7,2.5-2.2c1.1-0.6,2.4-0.8,3.6-0.8
	c1.9-0.1,3.8,0.5,5.3,1.7c1.2,1.1,1.8,2.9,1.8,5.3v12.6H234.7z"/>
<path class="st0" d="M251.8,27.7c-2.5,0.1-5-0.8-6.7-2.6c-1.7-2-2.6-4.6-2.5-7.2c-0.1-2.7,0.7-5.3,2.3-7.4c1.5-1.8,3.8-2.8,6.2-2.7
	c2.2-0.1,4.3,0.8,5.7,2.4c1.5,1.8,2.2,4,2.1,6.3v1.8h-13.3c-0.1,1.9,0.5,3.7,1.7,5.1c1.2,1.2,2.9,1.9,4.6,1.8c2.1,0,4.2-0.5,6.1-1.3
	v2.6c-0.9,0.4-1.9,0.8-2.9,1C254,27.7,252.9,27.7,251.8,27.7z M251,10.2c-1.4-0.1-2.7,0.5-3.7,1.5c-1,1.2-1.6,2.6-1.6,4.2h10.1
	c0.1-1.5-0.3-3-1.2-4.2C253.6,10.6,252.3,10.1,251,10.2z"/>
<path class="st0" d="M286.4,27.4V14.9c0.1-1.3-0.3-2.5-1.1-3.5c-0.9-0.8-2.1-1.3-3.4-1.2c-1.6-0.1-3.3,0.5-4.4,1.6
	c-0.9,1.1-1.4,2.9-1.4,5.4v10.1h-2.9V8.1h2.4l0.5,2.6h0.1c0.6-1,1.5-1.7,2.5-2.2c1.1-0.5,2.4-0.8,3.6-0.8c1.9-0.1,3.8,0.5,5.2,1.7
	c1.2,1.1,1.8,2.9,1.8,5.4v12.6H286.4z"/>
<path class="st0" d="M298,8.1v12.5c-0.1,1.3,0.3,2.5,1.1,3.5c0.9,0.8,2.1,1.3,3.4,1.2c1.6,0.1,3.3-0.5,4.4-1.6
	c0.9-1.1,1.4-2.9,1.4-5.4V8.1h2.9v19.3h-2.4l-0.4-2.6h-0.2c-0.6,0.9-1.5,1.7-2.5,2.2c-1.1,0.5-2.4,0.8-3.6,0.8
	c-1.9,0.1-3.8-0.5-5.3-1.7c-1.2-1.1-1.8-2.9-1.8-5.3V8.1H298z"/>
<path class="st0" d="M342,27.4V14.8c0.1-1.2-0.3-2.5-1-3.5c-0.8-0.8-1.9-1.2-3.1-1.1c-1.5-0.1-3,0.5-4,1.6c-1,1.4-1.4,3.1-1.3,4.8
	v10.8h-2.9V14.8c0.1-1.2-0.3-2.5-1-3.5c-0.8-0.8-1.9-1.2-3.1-1.1c-1.5-0.1-3,0.5-4,1.6c-0.9,1.1-1.3,2.9-1.3,5.4v10.1h-2.9V8.1h2.4
	l0.5,2.6h0.1c0.6-0.9,1.4-1.7,2.3-2.2c1-0.5,2.2-0.8,3.4-0.8c3,0,5,1.1,5.9,3.3h0.1c0.6-1,1.5-1.8,2.5-2.4c1.2-0.6,2.4-0.9,3.7-0.9
	c1.8-0.1,3.6,0.5,4.9,1.7c1.1,1.1,1.6,2.9,1.6,5.4v12.6H342z"/>
<path class="st0" d="M359.9,7.8c2.3-0.1,4.4,0.8,5.9,2.6c1.4,1.7,2.1,4.2,2.1,7.3c0,3.2-0.7,5.6-2.1,7.4c-1.4,1.8-3.6,2.7-5.9,2.6
	c-1.2,0-2.4-0.2-3.4-0.7c-1-0.5-1.9-1.2-2.6-2.1h-0.2l-0.6,2.5h-2.1V0h2.9v6.6c0,1.5,0,2.8-0.1,4h0.1C355.2,8.7,357.5,7.6,359.9,7.8
	z M359.5,10.2c-1.6-0.2-3.2,0.5-4.3,1.7c-0.9,1.1-1.3,3.1-1.3,5.8s0.5,4.6,1.4,5.8c1.1,1.2,2.7,1.9,4.3,1.8c1.6,0.1,3.1-0.7,4-2
	c1-1.7,1.4-3.7,1.3-5.6c0.1-2-0.3-3.9-1.3-5.6C362.5,10.8,361,10.1,359.5,10.2z"/>
<path class="st0" d="M381.1,27.7c-2.5,0.1-5-0.8-6.7-2.6c-1.7-2-2.6-4.6-2.5-7.2c-0.1-2.7,0.7-5.3,2.3-7.4c1.5-1.8,3.8-2.8,6.2-2.7
	c2.2-0.1,4.3,0.8,5.7,2.4c1.5,1.8,2.2,4,2.1,6.3v1.8h-13.3c-0.1,1.9,0.5,3.7,1.7,5.1c1.2,1.2,2.9,1.9,4.6,1.8c2.1,0,4.2-0.4,6.2-1.3
	v2.6c-0.9,0.4-1.9,0.8-2.9,1C383.3,27.7,382.2,27.7,381.1,27.7z M380.3,10.2c-1.4-0.1-2.7,0.5-3.7,1.5c-1,1.2-1.6,2.6-1.6,4.2H385
	c0.1-1.5-0.3-3-1.2-4.2C382.9,10.6,381.6,10.1,380.3,10.2L380.3,10.2z"/>
<path class="st0" d="M401.9,7.7c0.8,0,1.5,0.1,2.3,0.2l-0.4,2.7c-0.7-0.2-1.4-0.3-2.1-0.3c-1.6,0-3,0.7-4,1.9
	c-1.1,1.3-1.7,3-1.7,4.7v10.3h-2.9V8.1h2.4l0.3,3.6h0.1c0.6-1.2,1.5-2.1,2.6-2.9C399.6,8.1,400.7,7.7,401.9,7.7z"/>
<path class="st0" d="M434.8,17.5c0,3.2-0.8,5.7-2.5,7.5c-1.9,1.9-4.4,2.9-7,2.7c-1.7,0-3.5-0.4-5-1.2c-1.4-0.8-2.6-2.1-3.3-3.6
	c-0.8-1.7-1.2-3.5-1.2-5.4c0-3.2,0.8-5.7,2.5-7.5c1.9-1.9,4.4-2.8,7.1-2.7c1.7,0,3.5,0.4,5,1.2c1.4,0.8,2.6,2,3.3,3.5
	C434.4,13.8,434.8,15.6,434.8,17.5z M421.2,17.5c-0.1,1.5,0.3,3.1,1,4.4c0.7,1,1.9,1.6,3.1,1.5c1.2,0.1,2.4-0.5,3.1-1.5
	c0.7-1.4,1-2.9,0.9-4.4c0.1-1.5-0.2-3-1-4.4c-1.4-1.7-3.9-2-5.6-0.6c-0.2,0.2-0.4,0.4-0.6,0.6C421.4,14.5,421.1,16,421.2,17.5
	L421.2,17.5z"/>
<path class="st0" d="M457.3,27.4H452V15.9c0.1-1.1-0.2-2.2-0.8-3.2c-0.6-0.7-1.5-1.1-2.4-1.1c-1.3-0.1-2.5,0.5-3.2,1.5
	c-0.8,1.5-1.1,3.3-1,5v9.2h-5.4V7.7h4.1l0.7,2.5h0.3c0.6-0.9,1.5-1.7,2.5-2.2c1.1-0.5,2.3-0.8,3.6-0.7c1.9-0.1,3.8,0.5,5.2,1.9
	c1.3,1.5,1.9,3.4,1.8,5.3V27.4z"/>
<path class="st0" d="M471.8,27.7c-2.7,0.2-5.4-0.8-7.4-2.6c-1.8-1.7-2.7-4.2-2.7-7.4s0.8-5.8,2.5-7.6c1.8-1.9,4.3-2.8,6.8-2.7
	c2.4-0.2,4.8,0.7,6.5,2.4c1.6,1.8,2.5,4.2,2.3,6.6v2.6h-12.7c0,1.3,0.5,2.6,1.4,3.6c1,0.9,2.2,1.4,3.5,1.3c1.1,0,2.3-0.1,3.4-0.4
	c1.1-0.3,2.3-0.7,3.3-1.2v4.1c-1,0.5-2,0.8-3,1C474.4,27.6,473.1,27.7,471.8,27.7z M471,11.1c-1-0.1-2,0.3-2.7,1.1
	c-0.7,0.9-1.1,2-1.1,3.1h7.5c0.1-1.1-0.3-2.2-1-3.1C473,11.5,472,11.1,471,11.1z"/>
<path class="st0" d="M502.7,7.8c2.3-0.1,4.5,0.8,5.9,2.6c1.4,1.7,2.1,4.2,2.1,7.3s-0.7,5.6-2.1,7.4c-1.4,1.8-3.6,2.7-5.9,2.6
	c-1.2,0-2.4-0.2-3.4-0.7c-1-0.5-1.9-1.2-2.6-2.1h-0.2l-0.6,2.5h-2.1V0h2.9v6.6c0,1.5,0,2.8-0.1,4h0.1C498.1,8.7,500.3,7.6,502.7,7.8
	z M502.3,10.2c-1.6-0.2-3.2,0.5-4.3,1.7c-0.9,1.2-1.3,3.1-1.3,5.8s0.5,4.6,1.4,5.8c1.1,1.2,2.7,1.9,4.3,1.8c1.6,0.1,3.1-0.7,4-2
	c1-1.7,1.4-3.7,1.3-5.6c0.1-2-0.3-3.9-1.3-5.6C505.4,10.8,503.9,10.1,502.3,10.2z"/>
<path class="st0" d="M523.9,27.7c-2.5,0.1-5-0.8-6.7-2.6c-1.7-2-2.6-4.6-2.5-7.2c-0.1-2.7,0.7-5.3,2.3-7.4c1.5-1.8,3.8-2.8,6.2-2.7
	c2.2-0.1,4.3,0.8,5.7,2.4c1.5,1.8,2.2,4,2.1,6.3v1.8h-13.3c-0.1,1.9,0.5,3.7,1.7,5.1c1.2,1.2,2.9,1.9,4.6,1.8c2.1,0,4.2-0.5,6.2-1.3
	v2.6c-0.9,0.4-1.9,0.8-2.9,1C526.2,27.7,525.1,27.7,523.9,27.7z M523.2,10.2c-1.4-0.1-2.7,0.5-3.7,1.5c-1,1.2-1.6,2.6-1.6,4.2h10.1
	c0.1-1.5-0.3-3-1.2-4.2C525.8,10.6,524.5,10.1,523.2,10.2z"/>
<path class="st0" d="M558.5,24.8h-0.2c-1.4,2-3.7,3.1-6.1,2.9c-2.3,0.1-4.4-0.8-5.9-2.6c-1.4-1.7-2.1-4.2-2.1-7.4s0.7-5.6,2.1-7.4
	c1.4-1.8,3.6-2.8,5.9-2.6c2.4-0.1,4.6,1,6,2.8h0.2l-0.1-1.4l-0.1-1.4V0h2.9v27.4h-2.4L558.5,24.8z M552.6,25.3
	c1.6,0.2,3.2-0.4,4.3-1.6c0.9-1.1,1.3-2.8,1.3-5.2v-0.6c0-2.7-0.5-4.7-1.4-5.9c-1.1-1.2-2.7-1.9-4.3-1.7c-1.6-0.1-3.1,0.7-3.9,2
	c-1,1.7-1.5,3.7-1.4,5.6c-0.1,2,0.3,3.9,1.3,5.6C549.6,24.6,551.1,25.4,552.6,25.3L552.6,25.3z"/>
<path class="st0" d="M567.2,2.9c0-0.5,0.1-1.1,0.5-1.5c0.3-0.3,0.8-0.5,1.2-0.5c0.4,0,0.9,0.2,1.2,0.5c0.4,0.4,0.6,0.9,0.5,1.5
	c0,0.5-0.1,1.1-0.5,1.5c-0.7,0.6-1.8,0.6-2.4,0C567.3,3.9,567.1,3.4,567.2,2.9z M570.3,27.4h-2.9V8.1h2.9L570.3,27.4z"/>
<path class="st0" d="M589,22.1c0.1,1.6-0.7,3.2-2,4.1c-1.7,1.1-3.6,1.6-5.6,1.5c-2.1,0.1-4.1-0.3-6-1.2v-2.7c1,0.5,2,0.9,3,1.1
	c1,0.3,2,0.4,3.1,0.4c1.2,0.1,2.4-0.2,3.5-0.7c1.2-0.7,1.6-2.2,0.9-3.4c-0.2-0.3-0.4-0.5-0.6-0.7c-1.2-0.8-2.5-1.5-3.8-1.9
	c-1.3-0.5-2.6-1-3.8-1.8c-0.7-0.4-1.3-1-1.7-1.7c-0.4-0.7-0.6-1.5-0.5-2.3c0-1.5,0.7-2.9,1.9-3.7c1.6-1,3.4-1.4,5.2-1.3
	c2.1,0,4.2,0.4,6.1,1.3l-1,2.4c-1.7-0.7-3.4-1.1-5.3-1.2c-1.1-0.1-2.2,0.2-3.1,0.6c-0.6,0.4-1,1.1-1,1.8c0,0.5,0.1,0.9,0.4,1.3
	c0.4,0.4,0.8,0.8,1.3,1c1.1,0.6,2.2,1,3.4,1.4c1.7,0.5,3.3,1.4,4.6,2.5C588.6,19.8,589,20.9,589,22.1z"/>
<path class="st0" d="M602.7,27.7c-1.2,0-2.4-0.2-3.4-0.7c-1-0.5-1.9-1.2-2.6-2.1h-0.2c0.1,1.1,0.2,2.1,0.2,3.2V36h-2.9V8.1h2.4
	l0.4,2.6h0.1c0.7-1,1.6-1.8,2.6-2.3c1.1-0.5,2.2-0.7,3.4-0.7c2.3-0.1,4.5,0.9,5.9,2.6c1.4,1.8,2.1,4.2,2.1,7.4
	c0,3.1-0.7,5.6-2.1,7.4C607.1,26.8,604.9,27.8,602.7,27.7z M602.2,10.2c-1.6-0.1-3.2,0.5-4.3,1.6c-0.9,1.1-1.3,2.8-1.4,5.2v0.6
	c0,2.7,0.5,4.6,1.4,5.8c1.1,1.2,2.7,1.9,4.3,1.8c1.6,0.1,3-0.7,3.9-2c1-1.7,1.5-3.6,1.4-5.6c0.1-1.9-0.4-3.9-1.4-5.5
	C605.3,10.9,603.8,10.1,602.2,10.2z"/>
<path class="st0" d="M618.7,27.4h-2.9V0h2.9V27.4z"/>
<path class="st0" d="M636.7,27.4l-0.6-2.7H636c-0.8,1-1.7,1.9-2.9,2.5c-1.1,0.5-2.3,0.7-3.6,0.6c-1.6,0.1-3.2-0.4-4.5-1.5
	c-1.1-1.1-1.7-2.6-1.6-4.2c0-3.9,3.1-5.9,9.3-6.1l3.3-0.1v-1.2c0.1-1.2-0.3-2.4-1-3.4c-0.8-0.8-2-1.2-3.1-1.1
	c-1.9,0.1-3.8,0.6-5.4,1.5l-0.9-2.2c1-0.5,2-0.9,3.1-1.2c1.1-0.3,2.3-0.4,3.4-0.4c1.8-0.1,3.7,0.4,5.1,1.5c1.1,1,1.7,2.7,1.7,4.9
	v13.1H636.7z M630.1,25.3c1.6,0.1,3.1-0.5,4.3-1.5c1.1-1.1,1.6-2.6,1.5-4.2v-1.7L633,18c-1.7-0.1-3.4,0.3-5,1.1
	c-1,0.6-1.6,1.8-1.5,3c-0.1,0.9,0.3,1.8,1,2.4C628.2,25.1,629.2,25.4,630.1,25.3z"/>
<path class="st0" d="M641.8,8.1h3.1l4.2,11c0.7,1.8,1.3,3.6,1.7,5.4h0.1c0.2-0.6,0.5-1.6,1-3.1s2.1-5.9,4.8-13.4h3.1L651.7,30
	c-0.6,1.8-1.5,3.3-2.9,4.6c-1.1,0.9-2.5,1.4-4,1.4c-0.9,0-1.8-0.1-2.6-0.3v-2.3c0.7,0.1,1.4,0.2,2.2,0.2c2,0,3.4-1.1,4.3-3.4l1-2.7
	L641.8,8.1z"/>
<path class="st0" d="M671.2,27.7c-2.5,0.1-4.9-0.8-6.7-2.6c-1.7-2-2.6-4.6-2.5-7.2c-0.1-2.6,0.6-5.3,2.2-7.4
	c1.5-1.8,3.8-2.9,6.2-2.8c2.2-0.1,4.3,0.8,5.7,2.4c1.5,1.8,2.2,4,2.1,6.3v1.8H665c-0.1,1.9,0.5,3.7,1.7,5.1c1.2,1.2,2.9,1.9,4.6,1.8
	c2.1,0,4.2-0.5,6.2-1.3v2.6c-0.9,0.4-1.9,0.8-2.9,1C673.4,27.7,672.3,27.7,671.2,27.7z M670.4,10.2c-1.4-0.1-2.7,0.5-3.7,1.5
	c-1,1.2-1.6,2.6-1.6,4.2h10.1c0.1-1.5-0.3-3-1.2-4.2C673,10.6,671.7,10.1,670.4,10.2L670.4,10.2z"/>
<path class="st0" d="M696.3,24.8h-0.2c-1.4,2-3.6,3.1-6,2.9c-2.3,0.1-4.4-0.8-5.9-2.6c-1.4-1.7-2.1-4.2-2.1-7.4s0.7-5.6,2.1-7.4
	c1.4-1.8,3.6-2.8,5.9-2.6c2.4-0.1,4.6,1,6,2.8h0.2l-0.1-1.4l-0.1-1.4V0h2.9v27.4h-2.4L696.3,24.8z M690.5,25.3
	c1.6,0.1,3.2-0.5,4.3-1.6c0.9-1.1,1.3-2.8,1.3-5.2v-0.6c0-2.7-0.5-4.7-1.4-5.9c-1.1-1.2-2.7-1.9-4.4-1.7c-1.6-0.1-3.1,0.7-3.9,2
	c-1,1.7-1.5,3.7-1.4,5.6c-0.1,2,0.3,3.9,1.3,5.6C687.4,24.6,688.9,25.3,690.5,25.3L690.5,25.3z"/>
<path class="st0" d="M707.3,20.3v-1c0-1.2,0.2-2.3,0.6-3.4c0.6-1.1,1.4-2,2.3-2.8c1.1-0.9,2.1-1.9,3-3c0.4-0.7,0.6-1.6,0.6-2.5
	c0.1-1.1-0.4-2.1-1.2-2.8c-0.9-0.7-2.1-1.1-3.3-1c-0.9,0-1.8,0.1-2.7,0.3c-1,0.3-2,0.7-3,1.2l-1-2.4c2.1-1.1,4.5-1.7,6.9-1.7
	c1.9-0.1,3.8,0.5,5.2,1.7c1.3,1.2,2,2.9,1.9,4.7c0,0.8-0.1,1.5-0.3,2.3c-0.2,0.7-0.6,1.3-1,1.9c-0.9,1-1.9,1.9-2.9,2.8
	c-0.9,0.7-1.7,1.6-2.3,2.5c-0.4,0.8-0.6,1.8-0.6,2.7v0.6H707.3z M706.5,25.5c0-1.6,0.7-2.4,2.1-2.4c0.6,0,1.2,0.2,1.6,0.6
	c0.4,0.5,0.6,1.1,0.5,1.8c0,0.6-0.2,1.3-0.6,1.8c-0.4,0.4-1,0.7-1.6,0.6c-0.6,0-1.1-0.2-1.5-0.5C706.6,26.8,706.4,26.2,706.5,25.5z"
	/>
</svg>
