<?xml version="1.0" encoding="utf-8"?>
<!-- Generator: Adobe Illustrator 22.1.0, SVG Export Plug-In . SVG Version: 6.00 Build 0)  -->
<svg version="1.1"
	 id="svg3506" inkscape:version="0.92.0 r15299" sodipodi:docname="cl1.svg" xmlns:cc="http://creativecommons.org/ns#" xmlns:dc="http://purl.org/dc/elements/1.1/" xmlns:inkscape="http://www.inkscape.org/namespaces/inkscape" xmlns:rdf="http://www.w3.org/1999/02/22-rdf-syntax-ns#" xmlns:sodipodi="http://sodipodi.sourceforge.net/DTD/sodipodi-0.dtd" xmlns:svg="http://www.w3.org/2000/svg"
	 xmlns="http://www.w3.org/2000/svg" xmlns:xlink="http://www.w3.org/1999/xlink" x="0px" y="0px" width="49.3px" height="54px"
	 viewBox="0 0 49.3 54" style="enable-background:new 0 0 49.3 54;" xml:space="preserve">
<style type="text/css">
	.st0{fill:#4D4D4D;}
</style>
<sodipodi:namedview  bordercolor="#666666" borderopacity="1.0" fit-margin-bottom="0" fit-margin-left="0" fit-margin-right="0" fit-margin-top="0" id="base" inkscape:current-layer="layer1" inkscape:cx="97.979579" inkscape:cy="25.025969" inkscape:document-units="px" inkscape:pageopacity="0.0" inkscape:pageshadow="2" inkscape:window-height="986" inkscape:window-maximized="1" inkscape:window-width="1920" inkscape:window-x="-11" inkscape:window-y="-11" inkscape:zoom="1.979899" pagecolor="#ffffff" showgrid="false">
	</sodipodi:namedview>
<g id="layer1" transform="translate(2647.9642,341.38912)" inkscape:groupmode="layer" inkscape:label="Ebene 1">
	<g id="power" transform="translate(-2982.2216,-408.78912)">
		<rect id="rect18" x="354.5" y="67.4" class="st0" width="8" height="27.2"/>
		<path id="path20" inkscape:connector-curvature="0" class="st0" d="M368.1,73.9v8.6c5.3,3.2,7.8,8.2,7.7,15
			c-0.2,8-6.1,14.8-14,15.9c-11.2,1.5-19.7-6-19.7-16.6c0-6.4,2.6-11.2,7.7-14.2v-8.7c-10,4-16.7,14.4-15.3,26.2
			c1.4,10.3,11.2,20.1,21.6,21.2c14.9,1.7,27.5-9.9,27.5-24.5C383.5,86.4,377.1,77.6,368.1,73.9L368.1,73.9z"/>
	</g>
</g>
</svg>
